<svg width="591" height="518" viewBox="0 0 591 518" fill="none" xmlns="http://www.w3.org/2000/svg">
<path d="M174.5 10.9122C247.5 -4.25443 391.4 0.412231 383 140.412C374.6 280.412 202.333 299.912 99.5 294.412" stroke="white" stroke-width="10"/>
<path d="M78 437.912C128.833 394.079 230.9 277.212 232.5 160.412C265.833 252.912 339.6 437.912 368 437.912C396.4 437.912 461.833 162.579 491 24.9122" stroke="white" stroke-width="10"/>
<path d="M171 509.912C221.833 466.079 323.9 349.212 325.5 232.412C358.833 324.912 432.6 509.912 461 509.912C489.4 509.912 554.833 234.579 584 96.9122" stroke="white" stroke-width="10"/>
<path d="M235 162.84C202.124 163.446 171.649 160.117 151 156.17C168.6 150.833 173.667 100.5 174 75.9999C186 59.1296 187.667 28.108 183.5 13.4999L264 8.91211C325.6 26.4419 340 36.8829 339.5 39.9121C374.3 54.6419 383 95.3826 383 113.912C392.6 180.641 348 228.716 324.5 244.412C327.979 208.781 327.205 177.113 323.708 149.389C295.761 158.606 264.419 162.298 235 162.84Z" fill="#7DABCB"/>
<path d="M383 113.912C348.835 150.361 288.712 161.851 235 162.84M383 113.912C392.6 180.641 348 228.716 324.5 244.412C337.7 109.212 289.667 31.0788 264 8.91211M383 113.912C383 95.3826 374.3 54.6419 339.5 39.9121M174 75.9999C228.385 86.3967 284.424 98.6707 339.5 39.9121M174 75.9999C186 59.1296 187.667 28.108 183.5 13.4999M174 75.9999C173.667 100.5 168.6 150.833 151 156.17C171.649 160.117 202.124 163.446 235 162.84M339.5 39.9121C340 36.8829 325.6 26.4419 264 8.91211M183.5 13.4999C199 19.452 221.8 53.9827 235 162.84M183.5 13.4999L264 8.91211" stroke="white" stroke-width="10"/>
<path d="M3 438C12.5048 430.902 161.786 276.376 178 5" stroke="white" stroke-width="10"/>
<path d="M489.5 29.4122C492.333 47.4122 514.7 87.2122 581.5 102.412" stroke="white" stroke-width="10"/>
<path d="M155.5 160.912C150 231.912 203.7 401.012 462.5 509.412" stroke="white" stroke-width="10"/>
<path d="M5.5 436.412C38.3333 424.579 117.7 422.212 172.5 507.412" stroke="white" stroke-width="10"/>
<path d="M464 509.5C430.4 507.5 359.667 332.667 328.5 245.5C328.5 293.5 291.167 363.167 272.5 392C400.1 509.2 453.333 519.167 464 509.5Z" fill="#47432E" stroke="white" stroke-width="10"/>
<path d="M460 509C424.4 472.6 398.833 418.167 390.5 395.5C423.3 363.5 469.5 142.5 488.5 36C488.5 74.4 552.833 96.3333 585 102.5C558.167 253.167 495.6 545.4 460 509Z" fill="#C3C8CD" stroke="white" stroke-width="10"/>
<path d="M324 149C260.4 174.2 184.167 163.833 154 155.5C127.6 279.5 52.3333 390.833 18 431C101.6 415.4 157.167 473.5 174.5 504.5C323.7 402.9 336.333 225.167 324 149Z" fill="#C3C8CD" stroke="white" stroke-width="10"/>
</svg>
